<mxfile host="app.diagrams.net" modified="2023-11-14T07:49:18.525Z" agent="Mozilla/5.0 (Windows NT 10.0; Win64; x64) AppleWebKit/537.36 (KHTML, like Gecko) Chrome/119.0.0.0 Safari/537.36" etag="8BtkJXue4-1Yx9PRm89U" version="22.1.0" type="github">
  <diagram name="Page-1" id="58cdce13-f638-feb5-8d6f-7d28b1aa9fa0">
    <mxGraphModel dx="1050" dy="566" grid="1" gridSize="10" guides="1" tooltips="1" connect="1" arrows="1" fold="1" page="1" pageScale="1" pageWidth="1100" pageHeight="850" background="none" math="0" shadow="0">
      <root>
        <mxCell id="0" />
        <mxCell id="1" parent="0" />
        <mxCell id="iKdKtXM2FNXeRLLmk67t-1" value="" style="rounded=1;whiteSpace=wrap;html=1;" vertex="1" parent="1">
          <mxGeometry x="450" y="25" width="620" height="175" as="geometry" />
        </mxCell>
        <mxCell id="382b91b5511bd0f7-1" value="" style="ellipse;html=1;shape=startState;fillColor=#000000;strokeColor=#ff0000;rounded=1;shadow=0;comic=0;labelBackgroundColor=none;fontFamily=Verdana;fontSize=12;fontColor=#000000;align=center;direction=south;" parent="1" vertex="1">
          <mxGeometry x="130" y="135" width="30" height="30" as="geometry" />
        </mxCell>
        <mxCell id="382b91b5511bd0f7-5" value="Проигрывание трека" style="rounded=1;whiteSpace=wrap;html=1;arcSize=24;fillColor=#ffffc0;strokeColor=#EA6B66;shadow=0;comic=0;labelBackgroundColor=none;fontFamily=Verdana;fontSize=12;fontColor=#000000;align=center;" parent="1" vertex="1">
          <mxGeometry x="690" y="50" width="120" height="60" as="geometry" />
        </mxCell>
        <mxCell id="382b91b5511bd0f7-6" value="Бездействие" style="rounded=1;whiteSpace=wrap;html=1;arcSize=24;fillColor=#ffffc0;strokeColor=#ff0000;shadow=0;comic=0;labelBackgroundColor=none;fontFamily=Verdana;fontSize=12;fontColor=#000000;align=center;" parent="1" vertex="1">
          <mxGeometry x="240" y="120" width="120" height="60" as="geometry" />
        </mxCell>
        <mxCell id="382b91b5511bd0f7-7" value="Выбор трека" style="rounded=1;whiteSpace=wrap;html=1;arcSize=24;fillColor=#ffffc0;strokeColor=#ff0000;shadow=0;comic=0;labelBackgroundColor=none;fontFamily=Verdana;fontSize=12;fontColor=#000000;align=center;" parent="1" vertex="1">
          <mxGeometry x="480" y="50" width="120" height="60" as="geometry" />
        </mxCell>
        <mxCell id="2a3bc250acf0617d-9" style="edgeStyle=orthogonalEdgeStyle;html=1;labelBackgroundColor=none;endArrow=open;endSize=8;strokeColor=#ff0000;fontFamily=Verdana;fontSize=12;align=left;" parent="1" source="382b91b5511bd0f7-1" target="382b91b5511bd0f7-6" edge="1">
          <mxGeometry relative="1" as="geometry" />
        </mxCell>
        <mxCell id="iKdKtXM2FNXeRLLmk67t-2" value="" style="endArrow=classic;html=1;rounded=0;entryX=0;entryY=0.5;entryDx=0;entryDy=0;" edge="1" parent="1" source="382b91b5511bd0f7-6" target="382b91b5511bd0f7-7">
          <mxGeometry width="50" height="50" relative="1" as="geometry">
            <mxPoint x="300" y="99.28932188134524" as="sourcePoint" />
            <mxPoint x="300" y="49.289321881345245" as="targetPoint" />
            <Array as="points">
              <mxPoint x="300" y="80" />
            </Array>
          </mxGeometry>
        </mxCell>
        <mxCell id="iKdKtXM2FNXeRLLmk67t-3" value="Включение музыки" style="text;html=1;strokeColor=none;fillColor=none;align=center;verticalAlign=middle;whiteSpace=wrap;rounded=0;" vertex="1" parent="1">
          <mxGeometry x="320" y="50" width="110" height="30" as="geometry" />
        </mxCell>
        <mxCell id="iKdKtXM2FNXeRLLmk67t-4" value="" style="endArrow=classic;html=1;rounded=0;entryX=0;entryY=0.5;entryDx=0;entryDy=0;" edge="1" parent="1" source="382b91b5511bd0f7-7" target="382b91b5511bd0f7-5">
          <mxGeometry width="50" height="50" relative="1" as="geometry">
            <mxPoint x="600" y="130" as="sourcePoint" />
            <mxPoint x="670.7106781186548" y="80" as="targetPoint" />
          </mxGeometry>
        </mxCell>
        <mxCell id="iKdKtXM2FNXeRLLmk67t-5" value="Трек запущен" style="text;html=1;strokeColor=none;fillColor=none;align=center;verticalAlign=middle;whiteSpace=wrap;rounded=0;" vertex="1" parent="1">
          <mxGeometry x="600" y="50" width="80" height="30" as="geometry" />
        </mxCell>
        <mxCell id="iKdKtXM2FNXeRLLmk67t-6" value="выключение трека" style="rounded=1;whiteSpace=wrap;html=1;strokeColor=#EA6B66;" vertex="1" parent="1">
          <mxGeometry x="930" y="50" width="120" height="60" as="geometry" />
        </mxCell>
        <mxCell id="iKdKtXM2FNXeRLLmk67t-7" value="" style="endArrow=classic;html=1;rounded=0;exitX=1;exitY=0.5;exitDx=0;exitDy=0;entryX=0;entryY=0.5;entryDx=0;entryDy=0;" edge="1" parent="1" source="382b91b5511bd0f7-5" target="iKdKtXM2FNXeRLLmk67t-6">
          <mxGeometry width="50" height="50" relative="1" as="geometry">
            <mxPoint x="820" y="120" as="sourcePoint" />
            <mxPoint x="870" y="70" as="targetPoint" />
          </mxGeometry>
        </mxCell>
        <mxCell id="iKdKtXM2FNXeRLLmk67t-8" value="трек закончился" style="text;html=1;strokeColor=none;fillColor=none;align=center;verticalAlign=middle;whiteSpace=wrap;rounded=0;" vertex="1" parent="1">
          <mxGeometry x="820" y="50" width="100" height="30" as="geometry" />
        </mxCell>
        <mxCell id="iKdKtXM2FNXeRLLmk67t-9" value="" style="endArrow=classic;html=1;rounded=0;exitX=0.25;exitY=1;exitDx=0;exitDy=0;entryX=0.5;entryY=1;entryDx=0;entryDy=0;" edge="1" parent="1" source="iKdKtXM2FNXeRLLmk67t-6" target="382b91b5511bd0f7-7">
          <mxGeometry width="50" height="50" relative="1" as="geometry">
            <mxPoint x="970" y="140" as="sourcePoint" />
            <mxPoint x="1020" y="90" as="targetPoint" />
            <Array as="points">
              <mxPoint x="960" y="170" />
              <mxPoint x="770" y="170" />
              <mxPoint x="540" y="170" />
            </Array>
          </mxGeometry>
        </mxCell>
        <mxCell id="iKdKtXM2FNXeRLLmk67t-10" value="Поиск нового трека" style="text;html=1;strokeColor=none;fillColor=none;align=center;verticalAlign=middle;whiteSpace=wrap;rounded=0;" vertex="1" parent="1">
          <mxGeometry x="640" y="140" width="220" height="30" as="geometry" />
        </mxCell>
        <mxCell id="24f968d109e7d6b4-3" value="" style="ellipse;html=1;shape=endState;fillColor=#000000;strokeColor=#ff0000;rounded=1;shadow=0;comic=0;labelBackgroundColor=none;fontFamily=Verdana;fontSize=12;fontColor=#000000;align=center;" parent="1" vertex="1">
          <mxGeometry x="285" y="340" width="30" height="30" as="geometry" />
        </mxCell>
        <mxCell id="iKdKtXM2FNXeRLLmk67t-11" value="" style="endArrow=classic;html=1;rounded=0;exitX=0.5;exitY=1;exitDx=0;exitDy=0;entryX=0.75;entryY=1;entryDx=0;entryDy=0;" edge="1" parent="1" source="iKdKtXM2FNXeRLLmk67t-6" target="382b91b5511bd0f7-6">
          <mxGeometry width="50" height="50" relative="1" as="geometry">
            <mxPoint x="1000" y="160" as="sourcePoint" />
            <mxPoint x="990" y="250" as="targetPoint" />
            <Array as="points">
              <mxPoint x="990" y="240" />
              <mxPoint x="640" y="240" />
              <mxPoint x="330" y="240" />
            </Array>
          </mxGeometry>
        </mxCell>
        <mxCell id="iKdKtXM2FNXeRLLmk67t-12" value="Трек не выбран" style="text;html=1;strokeColor=none;fillColor=none;align=center;verticalAlign=middle;whiteSpace=wrap;rounded=0;" vertex="1" parent="1">
          <mxGeometry x="490" y="210" width="180" height="30" as="geometry" />
        </mxCell>
        <mxCell id="iKdKtXM2FNXeRLLmk67t-13" value="" style="endArrow=classic;html=1;rounded=0;exitX=0.5;exitY=1;exitDx=0;exitDy=0;entryX=0.5;entryY=0;entryDx=0;entryDy=0;" edge="1" parent="1" source="382b91b5511bd0f7-6" target="24f968d109e7d6b4-3">
          <mxGeometry width="50" height="50" relative="1" as="geometry">
            <mxPoint x="250" y="270" as="sourcePoint" />
            <mxPoint x="300" y="220" as="targetPoint" />
          </mxGeometry>
        </mxCell>
        <mxCell id="iKdKtXM2FNXeRLLmk67t-15" value="выход из приложения" style="text;html=1;strokeColor=none;fillColor=none;align=center;verticalAlign=middle;whiteSpace=wrap;rounded=0;rotation=90;" vertex="1" parent="1">
          <mxGeometry x="230" y="250" width="170" height="30" as="geometry" />
        </mxCell>
      </root>
    </mxGraphModel>
  </diagram>
</mxfile>
